<?xml version="1.0" standalone="no"?>
<!DOCTYPE svg PUBLIC "-//W3C//DTD SVG 20010904//EN"
 "http://www.w3.org/TR/2001/REC-SVG-20010904/DTD/svg10.dtd">
<svg version="1.0" xmlns="http://www.w3.org/2000/svg"
 width="1200.000000pt" height="630.000000pt" viewBox="0 0 1200.000000 630.000000"
 preserveAspectRatio="xMidYMid meet">

<g transform="translate(0.000000,630.000000) scale(0.100000,-0.100000)"
fill="#ffffff" stroke="none">
<path d="M0 3150 l0 -3150 6000 0 6000 0 0 3150 0 3150 -6000 0 -6000 0 0
-3150z m6378 2170 c-1 -5 -57 -104 -123 -219 l-120 -210 -282 -1 -281 0 -171
-297 -170 -298 94 -3 94 -3 108 -189 c59 -105 110 -190 113 -190 9 0 162 271
158 279 -9 23 -154 271 -158 271 -3 0 -25 -37 -49 -81 l-43 -82 -28 44 -28 44
30 55 c72 130 113 200 118 200 8 0 265 -451 263 -460 -6 -21 -257 -450 -263
-450 -4 0 -65 101 -136 225 l-128 225 -354 0 c-197 0 -352 4 -350 9 2 5 149
263 327 575 l324 566 529 0 c336 0 528 -4 526 -10z m604 -579 l318 -554 -266
-464 -266 -464 -124 217 c-68 119 -124 220 -124 224 0 4 61 114 135 244 74
129 135 240 135 246 0 6 -76 143 -169 306 l-169 295 -48 -85 -49 -86 -218 0
c-120 0 -217 -4 -215 -8 2 -5 37 -68 78 -140 l75 -132 162 0 162 0 -44 75
c-25 42 -45 80 -45 85 0 6 22 10 49 10 l49 0 71 -125 c39 -69 71 -127 71 -130
0 -3 -119 -5 -264 -5 l-264 0 -131 228 -130 227 263 3 262 2 178 311 c150 261
181 308 189 293 6 -11 154 -268 329 -573z m-432 -627 c0 -4 -59 -109 -130
-234 l-130 -228 174 -303 c96 -167 174 -304 173 -305 -1 -1 -295 -4 -653 -7
l-652 -7 -253 443 c-139 243 -259 452 -267 465 l-14 22 254 0 254 0 139 -245
140 -245 343 0 c189 0 342 3 340 8 -1 4 -22 42 -46 85 l-43 77 105 185 c58
101 106 189 106 195 0 7 -53 10 -157 8 l-158 -3 -77 -135 c-43 -74 -78 -138
-78 -142 0 -5 41 -8 91 -8 l90 0 -23 -42 -23 -43 -149 -3 c-81 -1 -146 1 -144
6 1 5 61 111 132 235 l130 227 263 0 c145 0 263 -3 263 -6z m410 -2154 l0
-620 -385 0 c-365 0 -388 1 -425 20 -21 11 -51 36 -67 57 l-28 36 -3 338 c-2
299 -1 342 14 371 23 46 43 67 86 89 34 17 63 19 358 19 l320 0 0 148 c0 82 3
152 7 155 3 4 33 7 65 7 l58 0 0 -620z m-3695 287 c51 -29 93 -91 97 -142 l3
-40 -62 -3 c-49 -2 -63 0 -63 11 0 8 -9 26 -21 41 l-20 26 -288 0 c-243 0
-290 -2 -309 -16 -20 -14 -22 -23 -22 -116 0 -80 3 -105 17 -120 15 -17 38
-18 322 -18 298 0 307 -1 346 -23 21 -12 53 -41 69 -64 27 -39 30 -50 34 -151
3 -84 1 -121 -12 -159 -18 -53 -64 -105 -109 -122 -18 -7 -145 -11 -343 -11
-296 0 -317 1 -354 20 -50 26 -91 86 -98 145 l-5 45 67 0 c61 0 66 -2 66 -22
0 -12 7 -30 17 -40 15 -17 38 -18 309 -18 l293 0 20 26 c17 22 21 41 21 109 0
68 -4 87 -21 109 l-20 26 -302 0 c-286 0 -303 1 -345 21 -26 13 -54 38 -70 62
-25 37 -27 49 -30 165 -4 138 3 167 52 221 55 59 60 60 406 60 308 1 316 0
355 -22z m1195 3 c47 -24 84 -71 99 -125 6 -22 11 -118 11 -212 l0 -173 -395
0 -395 0 0 -117 c0 -94 3 -120 17 -135 15 -17 41 -18 395 -18 l378 0 0 -65 0
-65 -390 0 c-372 0 -393 1 -430 20 -22 11 -52 39 -67 62 l-28 42 0 341 0 341
27 41 c15 23 44 49 70 62 41 20 56 21 356 21 293 0 315 -1 352 -20z m1209 0
c48 -24 87 -70 101 -118 14 -52 14 -964 -1 -1017 -15 -54 -52 -101 -99 -125
-37 -19 -59 -20 -340 -20 l-300 0 0 65 0 65 285 0 286 0 24 25 c23 22 25 32
25 120 l0 95 -323 0 c-320 0 -324 0 -368 23 -33 18 -51 37 -71 76 l-28 53 0
309 c0 337 2 353 58 413 51 54 61 55 400 56 291 0 315 -1 351 -20z m2384 4
c45 -23 66 -44 88 -86 17 -33 19 -61 19 -233 l0 -195 -390 0 -390 0 0 -117 c0
-94 3 -120 17 -135 15 -17 40 -18 390 -18 l373 0 0 -65 0 -65 -385 0 c-336 0
-390 2 -418 16 -45 23 -66 44 -88 86 -17 34 -19 63 -19 359 0 309 1 325 21
367 15 29 37 54 67 73 l46 29 318 0 c274 0 323 -2 351 -16z m705 -381 c113
-216 209 -393 212 -393 4 0 99 177 212 393 l206 392 76 3 77 3 -58 -108 c-32
-60 -143 -269 -248 -466 l-190 -357 -76 0 -76 0 -208 393 c-115 215 -226 425
-248 465 l-39 73 77 -3 77 -3 206 -392z"/>
<path d="M6202 2124 c-22 -15 -22 -16 -22 -318 0 -281 1 -304 18 -319 16 -15
53 -17 309 -17 268 0 291 1 306 18 15 16 17 54 17 320 0 300 0 301 -22 316
-19 14 -65 16 -303 16 -238 0 -284 -2 -303 -16z"/>
<path d="M3802 2124 c-21 -14 -22 -22 -22 -135 l0 -119 330 0 330 0 0 109 c0
94 -3 112 -21 135 l-20 26 -288 0 c-243 0 -290 -2 -309 -16z"/>
<path d="M5010 2120 c-19 -19 -20 -33 -20 -315 0 -282 1 -296 20 -315 19 -19
33 -20 310 -20 285 0 290 0 310 22 19 21 20 34 20 309 0 275 -1 287 -21 313
l-20 26 -290 0 c-276 0 -290 -1 -309 -20z"/>
<path d="M7402 2124 c-21 -14 -22 -22 -22 -135 l0 -119 325 0 325 0 0 119 c0
113 -1 121 -22 135 -33 24 -573 24 -606 0z"/>
</g>
</svg>
